<svg width="28" height="28" viewBox="0 0 28 28" fill="none" xmlns="http://www.w3.org/2000/svg">
<path fill-rule="evenodd" clip-rule="evenodd" d="M19.8333 3.5C18.5957 3.5 17.4087 3.99167 16.5335 4.86683C15.6583 5.742 15.1667 6.92899 15.1667 8.16667C15.1667 9.40434 15.6583 10.5913 16.5335 11.4665C17.4087 12.3417 18.5957 12.8333 19.8333 12.8333C21.071 12.8333 22.258 12.3417 23.1332 11.4665C24.0083 10.5913 24.5 9.40434 24.5 8.16667C24.5 6.92899 24.0083 5.742 23.1332 4.86683C22.258 3.99167 21.071 3.5 19.8333 3.5ZM3.5 19.8333C3.5 18.5957 3.99167 17.4087 4.86683 16.5335C5.742 15.6583 6.92899 15.1667 8.16667 15.1667C9.40434 15.1667 10.5913 15.6583 11.4665 16.5335C12.3417 17.4087 12.8333 18.5957 12.8333 19.8333C12.8333 21.071 12.3417 22.258 11.4665 23.1332C10.5913 24.0083 9.40434 24.5 8.16667 24.5C6.92899 24.5 5.742 24.0083 4.86683 23.1332C3.99167 22.258 3.5 21.071 3.5 19.8333ZM15.1667 16.3333C15.1667 16.0239 15.2896 15.7272 15.5084 15.5084C15.7272 15.2896 16.0239 15.1667 16.3333 15.1667H23.3333C23.6428 15.1667 23.9395 15.2896 24.1583 15.5084C24.3771 15.7272 24.5 16.0239 24.5 16.3333V22.1667C24.5 22.7855 24.2542 23.379 23.8166 23.8166C23.379 24.2542 22.7855 24.5 22.1667 24.5H17.5C16.8812 24.5 16.2877 24.2542 15.8501 23.8166C15.4125 23.379 15.1667 22.7855 15.1667 22.1667V16.3333ZM3.5 4.66667C3.5 4.35725 3.62292 4.0605 3.84171 3.84171C4.0605 3.62292 4.35725 3.5 4.66667 3.5H11.6667C11.9761 3.5 12.2728 3.62292 12.4916 3.84171C12.7104 4.0605 12.8333 4.35725 12.8333 4.66667V10.5C12.8333 11.1188 12.5875 11.7123 12.1499 12.1499C11.7123 12.5875 11.1188 12.8333 10.5 12.8333H5.83333C5.21449 12.8333 4.621 12.5875 4.18342 12.1499C3.74583 11.7123 3.5 11.1188 3.5 10.5V4.66667Z" fill="url(#paint0_linear_153_2722)"/>
<defs>
<linearGradient id="paint0_linear_153_2722" x1="9.50075" y1="0.269818" x2="26.8958" y2="21.7337" gradientUnits="userSpaceOnUse">
<stop stop-color="#3BD5FF"/>
<stop offset="1" stop-color="#367AF2"/>
</linearGradient>
</defs>
</svg>
