<svg width="28" height="28" viewBox="0 0 28 28" fill="none" xmlns="http://www.w3.org/2000/svg">
<path d="M14 2.3335C20.4435 2.3335 25.6667 7.55666 25.6667 14.0002C25.6667 20.4437 20.4435 25.6668 14 25.6668C12.1126 25.6693 10.253 25.212 8.582 24.3345L3.577 25.6377C3.40976 25.6812 3.23405 25.6803 3.06727 25.635C2.90049 25.5898 2.74844 25.5017 2.62618 25.3796C2.50393 25.2574 2.41571 25.1055 2.37028 24.9387C2.32484 24.772 2.32377 24.5963 2.36717 24.429L3.66917 19.4252C2.78931 17.7524 2.33078 15.8902 2.33333 14.0002C2.33333 7.55666 7.5565 2.3335 14 2.3335ZM15.4607 15.1668H10.2083L10.0893 15.175C9.8799 15.2038 9.68799 15.3075 9.54906 15.4668C9.41014 15.6262 9.3336 15.8304 9.3336 16.0418C9.3336 16.2532 9.41014 16.4575 9.54906 16.6168C9.68799 16.7762 9.8799 16.8798 10.0893 16.9087L10.2083 16.9168H15.4607L15.5785 16.9087C15.7879 16.8798 15.9798 16.7762 16.1188 16.6168C16.2577 16.4575 16.3342 16.2532 16.3342 16.0418C16.3342 15.8304 16.2577 15.6262 16.1188 15.4668C15.9798 15.3075 15.7879 15.2038 15.5785 15.175L15.4607 15.1668ZM17.7917 11.0835H10.2083L10.0893 11.0917C9.8799 11.1205 9.68799 11.2241 9.54906 11.3835C9.41014 11.5428 9.3336 11.7471 9.3336 11.9585C9.3336 12.1699 9.41014 12.3742 9.54906 12.5335C9.68799 12.6929 9.8799 12.7965 10.0893 12.8253L10.2083 12.8335H17.7917L17.9107 12.8253C18.1201 12.7965 18.312 12.6929 18.4509 12.5335C18.5899 12.3742 18.6664 12.1699 18.6664 11.9585C18.6664 11.7471 18.5899 11.5428 18.4509 11.3835C18.312 11.2241 18.1201 11.1205 17.9107 11.0917L17.7917 11.0835Z" fill="url(#paint0_linear_153_3737)"/>
<defs>
<linearGradient id="paint0_linear_153_3737" x1="9.00083" y1="-1.25603" x2="28.3315" y2="22.5933" gradientUnits="userSpaceOnUse">
<stop stop-color="#3BD5FF"/>
<stop offset="1" stop-color="#367AF2"/>
</linearGradient>
</defs>
</svg>
