<svg width="28" height="28" viewBox="0 0 28 28" fill="none" xmlns="http://www.w3.org/2000/svg">
<path d="M5.83333 24.5C5.19167 24.5 4.64256 24.2717 4.186 23.8152C3.72944 23.3586 3.50078 22.8091 3.5 22.1667V5.83333C3.5 5.19167 3.72867 4.64256 4.186 4.186C4.64333 3.72944 5.19244 3.50078 5.83333 3.5H17.7042C18.0153 3.5 18.312 3.55833 18.5943 3.675C18.8767 3.79167 19.1244 3.95694 19.3375 4.17083L23.8292 8.6625C24.0431 8.87639 24.2083 9.1245 24.325 9.40683C24.4417 9.68917 24.5 9.9855 24.5 10.2958V22.1667C24.5 22.8083 24.2717 23.3578 23.8152 23.8152C23.3586 24.2725 22.8091 24.5008 22.1667 24.5H5.83333ZM17.5 5.83333V9.33333C17.5 9.66389 17.612 9.94117 17.836 10.1652C18.06 10.3892 18.3369 10.5008 18.6667 10.5H22.1667L17.5 5.83333ZM18.6667 19.8333C18.9972 19.8333 19.2745 19.7213 19.4985 19.4973C19.7225 19.2733 19.8341 18.9964 19.8333 18.6667C19.8326 18.3369 19.7206 18.06 19.4973 17.836C19.2741 17.612 18.9972 17.5 18.6667 17.5H9.33333C9.00278 17.5 8.72589 17.612 8.50267 17.836C8.27944 18.06 8.16744 18.3369 8.16667 18.6667C8.16589 18.9964 8.27789 19.2737 8.50267 19.4985C8.72744 19.7233 9.00433 19.8349 9.33333 19.8333H18.6667ZM12.8333 10.5C13.1639 10.5 13.4412 10.388 13.6652 10.164C13.8892 9.94 14.0008 9.66311 14 9.33333C13.9992 9.00356 13.8872 8.72667 13.664 8.50267C13.4408 8.27867 13.1639 8.16667 12.8333 8.16667H9.33333C9.00278 8.16667 8.72589 8.27867 8.50267 8.50267C8.27944 8.72667 8.16744 9.00356 8.16667 9.33333C8.16589 9.66311 8.27789 9.94039 8.50267 10.1652C8.72744 10.3899 9.00433 10.5016 9.33333 10.5H12.8333ZM18.6667 15.1667C18.9972 15.1667 19.2745 15.0547 19.4985 14.8307C19.7225 14.6067 19.8341 14.3298 19.8333 14C19.8326 13.6702 19.7206 13.3933 19.4973 13.1693C19.2741 12.9453 18.9972 12.8333 18.6667 12.8333H9.33333C9.00278 12.8333 8.72589 12.9453 8.50267 13.1693C8.27944 13.3933 8.16744 13.6702 8.16667 14C8.16589 14.3298 8.27789 14.6071 8.50267 14.8318C8.72744 15.0566 9.00433 15.1682 9.33333 15.1667H18.6667Z" fill="url(#paint0_linear_153_1376)"/>
<defs>
<linearGradient id="paint0_linear_153_1376" x1="9.50075" y1="0.269818" x2="26.8958" y2="21.7337" gradientUnits="userSpaceOnUse">
<stop stop-color="#3BD5FF"/>
<stop offset="1" stop-color="#367AF2"/>
</linearGradient>
</defs>
</svg>
