<svg width="28" height="28" viewBox="0 0 28 28" fill="none" xmlns="http://www.w3.org/2000/svg">
<path d="M14 11.6668C16.5774 11.6668 18.6667 9.57749 18.6667 7.00016C18.6667 4.42283 16.5774 2.3335 14 2.3335C11.4227 2.3335 9.33337 4.42283 9.33337 7.00016C9.33337 9.57749 11.4227 11.6668 14 11.6668Z" fill="url(#paint0_linear_167_290)"/>
<path d="M23.3333 20.4165C23.3333 23.3157 23.3333 25.6665 14 25.6665C4.66663 25.6665 4.66663 23.3157 4.66663 20.4165C4.66663 17.5173 8.84563 15.1665 14 15.1665C19.1543 15.1665 23.3333 17.5173 23.3333 20.4165Z" fill="url(#paint1_linear_167_290)"/>
<defs>
<linearGradient id="paint0_linear_167_290" x1="12.0004" y1="0.89786" x2="19.7315" y2="10.4374" gradientUnits="userSpaceOnUse">
<stop stop-color="#3BD5FF"/>
<stop offset="1" stop-color="#367AF2"/>
</linearGradient>
<linearGradient id="paint1_linear_167_290" x1="10.0006" y1="13.5514" x2="16.7116" y2="28.2728" gradientUnits="userSpaceOnUse">
<stop stop-color="#3BD5FF"/>
<stop offset="1" stop-color="#367AF2"/>
</linearGradient>
</defs>
</svg>
